Coordinates
version=1
nRows=43
nColumns=12
inDegrees=yes

Units are S.I. units (second, meters, Newtons, ...)
Angles are in degrees

endheader
time	SC_y	SC_z	SC_x	AC_y	AC_z	AC_x	GH_y	GH_z	GH_yy	EL_x	PS_y
       0.0              -43.62          37.35          61.06          53.09         -10.56         -3.811          176.0          33.67         -2.617          72.99          141.7
   0.01722              -43.62          37.34          61.05          53.09         -10.55         -3.809          176.0          33.68         -2.617          72.99          141.7
   0.03444              -43.62          37.33          61.05          53.09         -10.55         -3.807          175.9          33.69         -2.617          72.99          141.7
   0.05167              -43.62          37.33          61.04           53.1         -10.55         -3.805          175.9           33.7         -2.616          72.99          141.7
   0.06889              -43.62          37.32          61.04           53.1         -10.55         -3.802          175.9          33.71         -2.616          72.99          141.7
   0.08611              -43.61          37.32          61.03           53.1         -10.54           -3.8          175.8          33.72         -2.616          72.99          141.7
    0.1033              -43.61          37.31          61.03           53.1         -10.54         -3.797          175.8          33.73         -2.615          72.99          141.7
    0.1206              -43.61           37.3          61.02          53.11         -10.54         -3.795          175.8          33.74         -2.615          72.98          141.7
    0.1378              -43.61          37.29          61.02          53.11         -10.54         -3.792          175.7          33.75         -2.615          72.98          141.7
     0.155              -43.61          37.28          61.01          53.12         -10.53         -3.789          175.7          33.77         -2.614          72.98          141.7
    0.1722              -43.61          37.27           61.0          53.12         -10.53         -3.785          175.6          33.78         -2.614          72.98          141.7
    0.1894              -43.61          37.26          60.99          53.13         -10.53         -3.781          175.6           33.8         -2.613          72.98          141.7
    0.2067              -43.61          37.25          60.99          53.13         -10.52         -3.777          175.5          33.82         -2.613          72.98          141.7
    0.2239              -43.61          37.24          60.98          53.14         -10.52         -3.773          175.5          33.83         -2.612          72.98          141.7
    0.2411              -43.61          37.23          60.97          53.14         -10.51         -3.769          175.4          33.85         -2.612          72.97          141.7
    0.2583              -43.61          37.21          60.96          53.15         -10.51         -3.764          175.4          33.88         -2.611          72.97          141.7
    0.2756              -43.61           37.2          60.94          53.16          -10.5         -3.758          175.3           33.9          -2.61          72.97          141.7
    0.2928              -43.61          37.18          60.93          53.16          -10.5         -3.752          175.2          33.93         -2.609          72.97          141.7
      0.31              -43.61          37.16          60.92          53.17         -10.49         -3.746          175.1          33.95         -2.609          72.97          141.7
    0.3272              -43.61          37.14           60.9          53.18         -10.48         -3.738          175.0          33.98         -2.608          72.96          141.7
    0.3444              -43.61          37.12          60.89          53.19         -10.48         -3.731          174.9          34.02         -2.607          72.96          141.7
    0.3617              -43.61           37.1          60.87           53.2         -10.47         -3.722          174.8          34.06         -2.606          72.96          141.7
    0.3789              -43.61          37.07          60.85          53.21         -10.46         -3.713          174.7           34.1         -2.604          72.95          141.7
    0.3961              -43.61          37.04          60.82          53.23         -10.45         -3.702          174.5          34.14         -2.603          72.95          141.7
    0.4133              -43.61          37.01           60.8          53.24         -10.44          -3.69          174.4          34.19         -2.601          72.94          141.7
    0.4306              -43.61          36.97          60.77          53.26         -10.42         -3.677          174.2          34.25           -2.6          72.94          141.6
    0.4478              -43.61          36.93          60.74          53.28         -10.41         -3.663          174.0          34.31         -2.598          72.93          141.6
     0.465              -43.61          36.88           60.7           53.3         -10.39         -3.646          173.8          34.38         -2.596          72.93          141.6
    0.4822              -43.61          36.83          60.66          53.32         -10.38         -3.628          173.5          34.46         -2.593          72.92          141.6
    0.4994              -43.61          36.77          60.62          53.35         -10.35         -3.606          173.3          34.56          -2.59          72.91          141.6
    0.5167              -43.61           36.7          60.57          53.38         -10.33         -3.582          172.9          34.66         -2.587           72.9          141.6
    0.5339              -43.61          36.63          60.51          53.42          -10.3         -3.555          172.6          34.78         -2.583          72.89          141.6
    0.5511              -43.61          36.54          60.44          53.46         -10.27         -3.523          172.2          34.92         -2.579          72.88          141.6
    0.5683               -43.6          36.43          60.36           53.5         -10.24         -3.486          171.7          35.08         -2.574          72.87          141.6
    0.5856               -43.6          36.31          60.26          53.56         -10.19         -3.442          171.1          35.27         -2.569          72.85          141.5
    0.6028               -43.6          36.17          60.15          53.63         -10.14         -3.391          170.4          35.49         -2.562          72.83          141.5
      0.62               -43.6           36.0          60.02           53.7         -10.08          -3.33          169.6          35.75         -2.554          72.81          141.5
    0.6372               -43.6          35.79          59.87           53.8         -10.01         -3.257          168.6          36.07         -2.544          72.78          141.5
    0.6544              -43.59          35.54          59.68          53.91         -9.924         -3.169          167.5          36.45         -2.533          72.75          141.4
    0.6717              -43.59          35.24          59.45          54.05         -9.819         -3.061          166.0          36.91         -2.519          72.71          141.4
    0.6889              -43.59          34.87          59.16          54.22         -9.688         -2.928          164.3          37.49         -2.501          72.65          141.3
    0.7061              -43.58           34.4           58.8          54.43         -9.525         -2.762          162.1           38.2         -2.479          72.59          141.3
    0.7233              -43.58          33.81          58.35           54.7         -9.319         -2.554          159.3          39.11         -2.452          72.51          141.2
